<svg xmlns="http://www.w3.org/2000/svg" viewBox="0 0 535 198"><defs><style>.cls-1{fill:#fff;}</style></defs><title>it-web-logo-inverse</title><g id="Layer_2" data-name="Layer 2"><path d="M282.41,101.78H255.28V24.55h27.13Z"/><path d="M341,101.78H313.86V43.06h-15V24.55h57.65V43.06H341Z"/><path d="M444.47,101.78H415.13l-13.4-27.51a16.15,16.15,0,0,0-.69-1.85c-.32-.77-.72-1.68-1.2-2.75l.19,5.1v27H373V24.55h27.79q18.35,0,27.45,5.55,11.58,7.11,11.58,20.21,0,14-15.55,19.36ZM400.16,60.32H402a11.38,11.38,0,0,0,7.8-2.75,8.92,8.92,0,0,0,3.13-7q0-8.66-11.78-8.65h-1Z"/><path d="M462.91,101.78V24.55h50.43V42.71H490.05V54h20.88V71.42H490.05V83.23h23.29v18.55Z"/><path class="cls-1" d="M197,9.91a17,17,0,0,1,12.16,4.95,16.43,16.43,0,0,1,5.15,12.36v44.1H197V27.22H38.72v105.5H152.88v17.72H135.15v17.72h17.73v17.31H82.4V168.16h17.72V150.44H38.72a16.75,16.75,0,0,1-12.57-5.36A17.24,17.24,0,0,1,21,132.72V27.22a16.4,16.4,0,0,1,5.15-12.36A17.47,17.47,0,0,1,38.72,9.91ZM223.35,89A8.44,8.44,0,0,1,232,97.69v79.13a8.44,8.44,0,0,1-8.65,8.65h-44.1a8.44,8.44,0,0,1-8.65-8.65V97.69A8.44,8.44,0,0,1,179.25,89Zm0,79.12V106.35h-44.1v61.81Z"/><path class="cls-1" d="M282.41,101.78H255.28V24.55h27.13Z"/><path class="cls-1" d="M341,101.78H313.86V43.06h-15V24.55h57.65V43.06H341Z"/><path class="cls-1" d="M444.47,101.78H415.13l-13.4-27.51a16.15,16.15,0,0,0-.69-1.85c-.32-.77-.72-1.68-1.2-2.75l.19,5.1v27H373V24.55h27.79q18.35,0,27.45,5.55,11.58,7.11,11.58,20.21,0,14-15.55,19.36ZM400.16,60.32H402a11.38,11.38,0,0,0,7.8-2.75,8.92,8.92,0,0,0,3.13-7q0-8.66-11.78-8.65h-1Z"/><path class="cls-1" d="M462.91,101.78V24.55h50.43V42.71H490.05V54h20.88V71.42H490.05V83.23h23.29v18.55Z"/><path class="cls-1" d="M256.34,116.23h8.26v54.28h-8.26Z"/><path class="cls-1" d="M277.3,116.23h26.88v6.4h-9.25v47.88h-8.1V122.63H277.3Z"/><path class="cls-1" d="M362.43,149.67l5.25,3.69-6.56,8.08,6.56,9.07h-9.06l-2.9-4.21a14.42,14.42,0,0,1-10.52,4.53,13.76,13.76,0,0,1-9.73-3.87,12.47,12.47,0,0,1-4.05-9.31,13.33,13.33,0,0,1,1.9-6.89A34.88,34.88,0,0,1,340,143.2Q335,136.3,335,130.3a9.39,9.39,0,0,1,3.34-7.39A12.75,12.75,0,0,1,347,120a12.52,12.52,0,0,1,8.38,2.67,8.83,8.83,0,0,1,3.17,7,12,12,0,0,1-1.94,6.68,23.85,23.85,0,0,1-2.7,3.43c-1.2,1.3-2.7,2.76-4.53,4.38l8.1,11.74Zm-18.66-.88q-4.61,4.5-4.61,8.43a7.44,7.44,0,0,0,2,5.31,6.41,6.41,0,0,0,4.88,2.18q3.18,0,6.24-3.44Zm2.18-10c1.14-1.05,2.09-2,2.86-2.79a15.79,15.79,0,0,0,1.75-2.13,7,7,0,0,0,1.23-4,4.08,4.08,0,0,0-4.33-4.36A4.86,4.86,0,0,0,344,127a4.33,4.33,0,0,0-1.43,3.26Q342.54,132.94,346,138.8Z"/><path class="cls-1" d="M389.79,116.23h8l4.17,25.21.67,3.73q.48,3,.72,5.52l.43,4.6a4,4,0,0,1,.08.63c0,.31.07.7.12,1.16l.2-1.75q.48-4.61,1-8.48t1.18-7.13l4.4-23.49h6.36l4.13,22.82q.92,5.05,1.53,9.39c.41,2.88.74,5.63,1,8.26q.39-4.15.89-8t1.05-7.59l.6-3.62,3.53-21.24h7.91l-10.84,54.28h-6.44l-4.33-23.45c0-.09-.09-.48-.19-1.16s-.27-1.65-.48-2.91l-.84-5.42c-.05-.42-.13-1-.25-1.9s-.25-1.91-.38-3.2l-.2-2.25c-.05.54-.1,1-.16,1.41s-.09.73-.12,1q-.19,2.31-.33,3.6c-.1.85-.16,1.38-.18,1.56l-.84,5.21c-.18,1.19-.33,2.13-.43,2.81s-.19,1.1-.24,1.26L407,170.51h-6.63Z"/><path class="cls-1" d="M450.74,116.23h22v6.19H459v17.19h12.15v6.19H459v18.53h13.7v6.18h-22Z"/><path class="cls-1" d="M488.41,116.23h11.2q13.15,0,13.15,14.45,0,5.52-1.71,8.19t-6,4q5,1.76,6.8,4.5t1.86,8.15q0,14.94-14.45,14.94H488.41Zm7.79,23.91c3.2,0,5.43-.66,6.67-2s1.87-3.81,1.87-7.28q0-8.79-7.15-8.79h-1a1.33,1.33,0,0,0-.4,0Zm0,24.12q5.08,0,7-1.94t1.94-7q0-5.21-2-7.28c-1.33-1.41-3.64-2.11-6.95-2.11Z"/><polygon class="cls-1" points="150.19 80.67 115.85 46.33 89.39 72.8 115.9 72.8 115.94 72.8 115.95 72.8 115.95 61.63 115.95 61.63 116.03 61.55 135.15 80.67 135.31 80.84 116.03 100.12 115.95 100.04 115.95 100.04 115.95 88.15 115.94 88.15 115.9 88.15 88.95 88.15 88.82 88.15 115.9 115.23 115.9 115.01 115.94 114.97 115.94 115.33 115.95 115.32 115.95 114.96 150.21 80.7 150.19 80.67"/></g></svg>