<svg xmlns="http://www.w3.org/2000/svg" viewBox="0 0 1156 354"><defs><style>.cls-1,.cls-2,.cls-3{fill:#fff;}.cls-2{font-size:188px;font-family:Futura-CondensedExtraBold, Futura;font-weight:800;letter-spacing:0.06em;}.cls-3{font-size:60px;font-family:Futura-Bold, Futura;font-weight:700;}.cls-14,.cls-3{letter-spacing:0em;}.cls-4{letter-spacing:0.02em;}.cls-5{letter-spacing:0em;}.cls-6{letter-spacing:0.01em;}.cls-7{letter-spacing:0.01em;}.cls-8{letter-spacing:-0.02em;}.cls-9{letter-spacing:0.01em;}.cls-10{letter-spacing:0.02em;}.cls-11{letter-spacing:-0.01em;}.cls-12{letter-spacing:0.01em;}.cls-13{letter-spacing:0.03em;}</style></defs><title>logo-inverse</title><g id="Layer_2" data-name="Layer 2"><polygon class="cls-1" points="252 142.1 113.49 3.59 6.73 110.35 113.67 110.35 113.83 110.35 113.88 110.35 113.88 65.3 113.88 65.29 114.2 64.98 191.31 142.1 191.99 142.77 114.2 220.56 113.88 220.24 113.88 220.24 113.88 172.27 113.83 172.27 113.67 172.27 4.96 172.27 4.46 172.27 113.67 281.49 113.67 280.62 113.83 280.46 113.83 281.91 113.88 281.86 113.88 280.4 252.09 142.19 252 142.1"/><text class="cls-2" transform="translate(277.95 197.92) scale(1.15 0.86)">ITRE</text><text class="cls-3" transform="translate(282.09 266.38)">In<tspan class="cls-4" x="61.44" y="0">st</tspan><tspan class="cls-5" x="116.4" y="0">itu</tspan><tspan class="cls-6" x="197.75" y="0">t</tspan><tspan x="220.91" y="0">e </tspan><tspan class="cls-7" x="280.49" y="0">f</tspan><tspan x="304.67" y="0">or </tspan><tspan class="cls-8" x="395.51" y="0">T</tspan><tspan class="cls-9" x="426.47" y="0">r</tspan><tspan x="454.97" y="0">anspo</tspan><tspan class="cls-10" x="652.37" y="0">r</tspan><tspan class="cls-6" x="681.65" y="0">t</tspan><tspan x="704.81" y="0">a</tspan><tspan class="cls-4" x="747.04" y="0">t</tspan><tspan class="cls-5" x="770.44" y="0">ion </tspan><tspan class="cls-11"><tspan x="0" y="72">R</tspan><tspan class="cls-5" x="42.06" y="72">esea</tspan><tspan class="cls-12" x="193.02" y="72">r</tspan><tspan class="cls-13" x="221.46" y="72">c</tspan><tspan class="cls-14" x="252.54" y="72">h and Educa</tspan><tspan class="cls-4" x="646.97" y="72">t</tspan><tspan class="cls-14" x="670.37" y="72">ion</tspan></tspan></text></g></svg>