<?xml version="1.0" encoding="utf-8"?>
<!-- Generator: Adobe Illustrator 23.0.3, SVG Export Plug-In . SVG Version: 6.00 Build 0)  -->
<svg version="1.1" xmlns="http://www.w3.org/2000/svg" xmlns:xlink="http://www.w3.org/1999/xlink" x="0px" y="0px"
	 viewBox="0 0 1156 354" style="enable-background:new 0 0 1156 354;" xml:space="preserve">
<style type="text/css">
	.st0{fill:#CA2027;stroke:#000000;stroke-width:3;}
	.st1{fill:#FFFFFF;}
	.st2{fill:#CC0000;}
	.st3{fill:none;}
	.st4{font-family:'Futura-CondensedExtraBold';}
	.st5{font-size:188px;}
	.st6{letter-spacing:11.3;}
	.st7{font-family:'Futura-Bold';}
	.st8{font-size:60px;}
	.st9{display:none;}
	.st10{display:inline;}
	.st11{font-family:'FuturaBT-ExtraBlack';}
	.st12{font-size:86.3891px;}
	.st13{letter-spacing:6;}
	.st14{font-family:'FuturaBT-Heavy';}
	.st15{font-size:31.8636px;}
	.st16{letter-spacing:1;}
</style>
<g id="Layer_1">
</g>
<g id="Layer_2">
	<g>
		<g>
			<polygon class="st2" points="252,143.12 113.49,4.61 6.73,111.37 113.67,111.37 113.83,111.37 113.88,111.37 113.88,66.32 
				113.88,66.32 114.2,66 191.31,143.12 191.99,143.79 114.2,221.58 113.88,221.26 113.88,221.26 113.88,173.3 113.83,173.3 
				113.67,173.3 4.96,173.3 4.46,173.3 113.67,282.51 113.67,281.64 113.83,281.48 113.83,282.93 113.88,282.88 113.88,281.43 
				252.09,143.22 			"/>
		</g>
		<rect x="277.95" y="43.9" class="st3" width="505.45" height="156.03"/>
		<text transform="matrix(1.15 0 0 0.86 277.948 198.9436)" class="st4 st5 st6">ITRE</text>
		<rect x="282.09" y="217.6" class="st3" width="890.96" height="140.99"/>
		<text transform="matrix(1 0 0 1 282.0917 267.3989)"><tspan x="0" y="0" class="st7 st8">Institute for Transportation </tspan><tspan x="0" y="72" class="st7 st8">Research and Education</tspan></text>
	</g>
</g>
<g id="Layer_2_copy" class="st9">
	<g class="st10">
		<g>
			<polygon points="142.38,87.59 72.78,18 19.14,71.64 72.88,71.64 72.96,71.64 72.98,71.64 72.98,49 72.98,49 73.14,48.85 
				111.89,87.59 112.22,87.93 73.14,127.02 72.98,126.86 72.98,126.86 72.98,102.76 72.96,102.76 72.88,102.76 18.25,102.76 
				18,102.76 72.88,157.63 72.88,157.19 72.96,157.11 72.96,157.84 72.98,157.82 72.98,157.09 142.42,87.64 			"/>
		</g>
		<rect x="152.75" y="49.31" class="st3" width="249.29" height="76.87"/>
		<text transform="matrix(1 0 0 1 152.7549 110.6479)" class="st11 st12 st13">ITRE</text>
		<rect x="156.17" y="125.36" class="st3" width="437.83" height="75.96"/>
		<text transform="matrix(1 0 0 1 156.168 147.9839)"><tspan x="0" y="0" class="st14 st15 st16">Institute for Transportation </tspan><tspan x="0" y="33.63" class="st14 st15 st16">Research and Education</tspan></text>
	</g>
	<g class="st10">
		<g>
			<polygon class="st2" points="142.38,312.59 72.78,243 19.14,296.64 72.88,296.64 72.96,296.64 72.98,296.64 72.98,274 72.98,274 
				73.14,273.85 111.89,312.59 112.22,312.93 73.14,352.02 72.98,351.86 72.98,351.86 72.98,327.76 72.96,327.76 72.88,327.76 
				18.25,327.76 18,327.76 72.88,382.63 72.88,382.19 72.96,382.11 72.96,382.84 72.98,382.82 72.98,382.09 142.42,312.64 			"/>
		</g>
		<rect x="152.75" y="274.31" class="st3" width="249.29" height="76.87"/>
		<text transform="matrix(1 0 0 1 152.7548 335.6479)" class="st11 st12 st13">ITRE</text>
		<rect x="156.17" y="350.36" class="st3" width="437.83" height="75.96"/>
		<text transform="matrix(1 0 0 1 156.1679 372.9839)"><tspan x="0" y="0" class="st14 st15 st16">Institute for Transportation </tspan><tspan x="0" y="33.63" class="st14 st15 st16">Research and Education</tspan></text>
	</g>
</g>
<g id="Layer_4">
</g>
</svg>
